<?xml version="1.0" encoding="UTF-8"?>
<svg version="1.1" xmlns="http://www.w3.org/2000/svg" width="55" height="48">
<path d="M0 0 C18.15 0 36.3 0 55 0 C55 15.84 55 31.68 55 48 C36.85 48 18.7 48 0 48 C0 32.16 0 16.32 0 0 Z " fill="#E0E4EF" transform="translate(0,0)"/>
<path d="M0 0 C1 1 1 1 1.09765625 4.37890625 C1.09098369 5.77347077 1.07902532 7.16801743 1.0625 8.5625 C1.05798828 9.27341797 1.05347656 9.98433594 1.04882812 10.71679688 C1.03700864 12.47790013 1.01907263 14.23896036 1 16 C3.64 16 6.28 16 9 16 C9 11.38 9 6.76 9 2 C11.98594424 0.50702788 14.70853624 0.88244772 18 1 C18.66 1.33 19.32 1.66 20 2 C20 6.95 20 11.9 20 17 C20.66 17 21.32 17 22 17 C21.97679688 16.01257813 21.95359375 15.02515625 21.9296875 14.0078125 C21.91164063 12.72648437 21.89359375 11.44515625 21.875 10.125 C21.85179688 8.84882813 21.82859375 7.57265625 21.8046875 6.2578125 C22 3 22 3 24 1 C27 0.75 27 0.75 30 1 C32 3 32 3 32.1953125 6.9140625 C32.18200376 8.48449351 32.15813602 10.05486221 32.125 11.625 C32.11597656 12.42679688 32.10695312 13.22859375 32.09765625 14.0546875 C32.07406223 16.03658523 32.03819065 18.01832981 32 20 C31.01 20 30.02 20 29 20 C29 14.72 29 9.44 29 4 C27.35 4 25.7 4 24 4 C24.01160156 4.99902344 24.02320313 5.99804688 24.03515625 7.02734375 C24.04417969 8.31769531 24.05320313 9.60804687 24.0625 10.9375 C24.07410156 12.22527344 24.08570313 13.51304688 24.09765625 14.83984375 C24 18 24 18 23 19 C20 19.125 20 19.125 17 19 C16 18 16 18 15.90234375 14.62109375 C15.90901631 13.22652923 15.92097468 11.83198257 15.9375 10.4375 C15.94201172 9.72658203 15.94652344 9.01566406 15.95117188 8.28320312 C15.96299136 6.52209987 15.98092737 4.76103964 16 3 C14.68 3.33 13.36 3.66 12 4 C11.95101563 4.91523438 11.90203125 5.83046875 11.8515625 6.7734375 C11.77679687 7.96195313 11.70203125 9.15046875 11.625 10.375 C11.55539063 11.55835938 11.48578125 12.74171875 11.4140625 13.9609375 C11 17 11 17 9 19 C6.94140625 19.30078125 6.94140625 19.30078125 4.5625 19.3125 C3.38880859 19.33763672 3.38880859 19.33763672 2.19140625 19.36328125 C0 19 0 19 -1.7734375 17.8984375 C-3.61449209 15.04890715 -3.28693778 12.66023853 -3.1875 9.3125 C-3.14689453 7.54326172 -3.14689453 7.54326172 -3.10546875 5.73828125 C-3.07066406 4.83464844 -3.03585938 3.93101563 -3 3 C-3.99 3 -4.98 3 -6 3 C-5.67 7.62 -5.34 12.24 -5 17 C-5.99 16.67 -6.98 16.34 -8 16 C-8.08075665 13.70890403 -8.13907731 11.41700733 -8.1875 9.125 C-8.22230469 7.84882813 -8.25710937 6.57265625 -8.29296875 5.2578125 C-8.19628906 4.18273437 -8.09960938 3.10765625 -8 2 C-4.77786243 -0.14809171 -3.72224599 -0.29386153 0 0 Z " fill="#363639" transform="translate(16,16)"/>
<path d="M0 0 C1.99954746 -0.04254356 4.00041636 -0.04080783 6 0 C7 1 7 1 7.09765625 4.81640625 C7.09098089 6.39846682 7.07901875 7.98051159 7.0625 9.5625 C7.05798828 10.36880859 7.05347656 11.17511719 7.04882812 12.00585938 C7.03700518 14.00393756 7.01906914 16.00197783 7 18 C6.01 18 5.02 18 4 18 C3.96261719 16.86820313 3.92523438 15.73640625 3.88671875 14.5703125 C3.82106918 13.08850795 3.75462149 11.60673861 3.6875 10.125 C3.66494141 9.37863281 3.64238281 8.63226563 3.61914062 7.86328125 C3.52188055 5.900396 3.26957706 3.94671678 3 2 C2.01 1.34 1.02 0.68 0 0 Z " fill="#111112" transform="translate(41,18)"/>
<path d="M0 0 C0.99 0 1.98 0 3 0 C3.02693575 2.12493141 3.04636628 4.24995912 3.0625 6.375 C3.07410156 7.55835938 3.08570313 8.74171875 3.09765625 9.9609375 C3 13 3 13 2 15 C1.34 14.67 0.68 14.34 0 14 C0 9.38 0 4.76 0 0 Z " fill="#D1D5E0" transform="translate(10,19)"/>
<path d="M0 0 C0.33 0 0.66 0 1 0 C1.22126178 2.45779976 1.42750395 4.91527648 1.625 7.375 C1.68945312 8.07367188 1.75390625 8.77234375 1.8203125 9.4921875 C1.96119739 11.32369111 1.98761659 13.16312748 2 15 C0 17 0 17 -2.1640625 17.1953125 C-2.97617187 17.17210938 -3.78828125 17.14890625 -4.625 17.125 C-5.44226563 17.10695313 -6.25953125 17.08890625 -7.1015625 17.0703125 C-7.72804688 17.04710938 -8.35453125 17.02390625 -9 17 C-8.01 15.515 -8.01 15.515 -7 14 C-4.69 14 -2.38 14 0 14 C0 9.38 0 4.76 0 0 Z " fill="#686A6F" transform="translate(25,18)"/>
<path d="M0 0 C1.134375 0.020625 2.26875 0.04125 3.4375 0.0625 C4.54594919 3.38784757 4.28204356 5.68432575 3.4375 9.0625 C3.1075 9.0625 2.7775 9.0625 2.4375 9.0625 C2.4375 6.7525 2.4375 4.4425 2.4375 2.0625 C0.7875 2.3925 -0.8625 2.7225 -2.5625 3.0625 C-2.8925 6.0325 -3.2225 9.0025 -3.5625 12.0625 C-3.8925 12.0625 -4.2225 12.0625 -4.5625 12.0625 C-4.58937279 10.25007948 -4.60883715 8.43754767 -4.625 6.625 C-4.63660156 5.61566406 -4.64820312 4.60632813 -4.66015625 3.56640625 C-4.50618986 -0.38129207 -4.09874205 0.07190776 0 0 Z " fill="#0C0C0D" transform="translate(30.5625,16.9375)"/>
<path d="M0 0 C0.94875 0.04125 1.8975 0.0825 2.875 0.125 C1.885 1.61 1.885 1.61 0.875 3.125 C-0.445 3.125 -1.765 3.125 -3.125 3.125 C-3.125 7.745 -3.125 12.365 -3.125 17.125 C-3.455 17.125 -3.785 17.125 -4.125 17.125 C-4.34626178 14.66720024 -4.55250395 12.20972352 -4.75 9.75 C-4.81445312 9.05132812 -4.87890625 8.35265625 -4.9453125 7.6328125 C-5.08619739 5.80130889 -5.11261659 3.96187252 -5.125 2.125 C-3.125 0.125 -3.125 0.125 0 0 Z " fill="#5F6166" transform="translate(43.125,16.875)"/>
<path d="M0 0 C0.33 0 0.66 0 1 0 C1.66 1.98 2.32 3.96 3 6 C5.97 6.495 5.97 6.495 9 7 C9 7.33 9 7.66 9 8 C7.52093108 8.02689216 6.04172517 8.04634621 4.5625 8.0625 C3.32693359 8.07990234 3.32693359 8.07990234 2.06640625 8.09765625 C0 8 0 8 -1 7 C-1.125 4 -1.125 4 -1 1 C-0.67 0.67 -0.34 0.34 0 0 Z " fill="#090909" transform="translate(15,26)"/>
<path d="M0 0 C0.99 0.33 1.98 0.66 3 1 C2.34 1.66 1.68 2.32 1 3 C0.53993654 5.20250992 0.53993654 5.20250992 0.375 7.625 C0.30023437 8.44226562 0.22546875 9.25953125 0.1484375 10.1015625 C0.07496094 11.04128906 0.07496094 11.04128906 0 12 C-0.33 12 -0.66 12 -1 12 C-1.02687279 10.18757948 -1.04633715 8.37504767 -1.0625 6.5625 C-1.07410156 5.55316406 -1.08570312 4.54382813 -1.09765625 3.50390625 C-1 1 -1 1 0 0 Z " fill="#2C2D2F" transform="translate(27,17)"/>
</svg>
